<?xml version="1.0" standalone="no"?>
<!DOCTYPE svg PUBLIC "-//W3C//DTD SVG 20010904//EN"
 "http://www.w3.org/TR/2001/REC-SVG-20010904/DTD/svg10.dtd">
<svg version="1.0" xmlns="http://www.w3.org/2000/svg"
 width="500.000000pt" height="500.000000pt" viewBox="0 0 500.000000 500.000000"
 preserveAspectRatio="xMidYMid meet">

<g transform="translate(0.000000,500.000000) scale(0.100000,-0.100000)"
fill="#000000" stroke="none">
<path d="M2294 4330 c-377 -48 -712 -193 -982 -425 -129 -111 -271 -266 -334
-365 -22 -36 -49 -77 -59 -92 -32 -46 -128 -244 -153 -315 -71 -198 -109 -415
-109 -633 -1 -338 86 -669 242 -923 22 -37 41 -70 41 -73 0 -11 69 -103 156
-209 80 -97 214 -222 326 -302 137 -100 387 -222 543 -266 215 -61 296 -72
535 -72 239 0 321 11 535 72 169 48 430 177 560 277 119 92 233 199 308 290
90 109 157 199 157 210 0 4 16 33 37 64 108 170 191 413 234 687 18 114 15
388 -5 509 -22 133 -69 316 -102 396 -107 263 -284 521 -475 692 -172 154
-263 215 -464 312 -140 68 -236 99 -416 137 -122 25 -172 31 -324 34 -99 2
-212 0 -251 -5z m395 -185 c32 -16 60 -70 44 -86 -14 -14 -39 -2 -51 27 -17
35 -59 33 -73 -3 -17 -43 -22 -125 -10 -155 8 -22 17 -28 40 -28 20 0 34 7 41
20 15 28 40 25 40 -4 0 -30 -43 -66 -79 -66 -52 0 -101 60 -101 124 0 61 23
131 52 158 34 32 56 35 97 13z m-521 -18 c12 -14 31 -111 39 -198 4 -48 2 -59
-18 -83 -15 -16 -38 -29 -61 -33 -33 -5 -41 -2 -71 28 -28 28 -38 51 -57 130
-25 105 -23 132 12 127 19 -2 25 -13 36 -63 26 -122 41 -163 63 -170 26 -8 49
11 49 40 0 13 -9 64 -21 115 -17 72 -18 94 -9 105 15 18 24 19 38 2z m790
-171 c3 -140 -4 -171 -34 -159 -8 3 -14 18 -14 33 0 32 -3 35 -46 44 -26 6
-32 3 -42 -19 -12 -25 -52 -36 -52 -14 0 14 27 66 93 177 40 68 53 83 71 80
20 -3 21 -8 24 -142z m-1049 62 c74 -238 79 -268 49 -268 -7 0 -30 25 -52 56
-21 30 -40 54 -42 52 -2 -2 3 -28 11 -58 19 -72 19 -90 -2 -90 -22 0 -167 236
-159 257 11 27 39 8 64 -40 29 -58 38 -57 17 3 -17 48 -19 76 -6 84 17 11 36
-4 65 -50 33 -53 44 -52 22 1 -22 52 -21 85 3 85 13 0 23 -11 30 -32z m1311
-13 c65 -33 84 -55 60 -70 -5 -3 -34 6 -65 20 -31 14 -58 25 -60 25 -6 0 -35
-56 -35 -68 0 -4 23 -18 50 -29 49 -21 64 -45 35 -57 -8 -3 -36 4 -61 14 -25
11 -47 20 -50 20 -2 0 -15 -23 -29 -51 -28 -54 -51 -60 -48 -13 2 41 101 244
119 244 8 0 46 -16 84 -35z m240 -142 c38 -25 70 -50 70 -54 0 -3 -6 -12 -14
-18 -12 -10 -25 -5 -68 24 l-53 36 -22 -28 c-13 -16 -23 -31 -23 -35 0 -4 19
-20 42 -35 24 -16 44 -36 46 -46 6 -31 -27 -30 -75 1 l-47 31 -18 -27 c-10
-15 -18 -30 -18 -34 0 -3 23 -23 50 -43 50 -37 62 -61 35 -71 -18 -7 -145 85
-145 106 0 18 148 240 160 240 5 0 41 -21 80 -47z m-1792 -15 c100 -133 114
-183 64 -231 -36 -35 -97 -37 -131 -6 -42 40 -132 170 -129 187 2 9 13 18 24
20 16 2 33 -15 78 -83 62 -91 93 -112 124 -82 20 21 13 36 -62 141 -32 43 -55
85 -52 92 11 29 44 13 84 -38z m1010 -133 c206 -34 404 -119 556 -239 251
-199 402 -450 462 -771 26 -143 16 -364 -25 -519 -79 -298 -247 -533 -511
-713 -180 -122 -449 -203 -675 -203 -211 0 -477 74 -637 178 -260 167 -431
380 -522 647 -50 149 -69 258 -69 405 0 342 137 661 385 896 171 163 406 279
647 319 105 18 278 18 389 0z m1329 -521 c23 -23 25 -31 20 -75 -5 -39 -3 -49
9 -49 24 0 64 -47 64 -74 0 -33 -44 -83 -80 -91 -42 -9 -145 23 -181 56 -27
25 -29 32 -23 66 28 158 120 238 191 167z m-2927 -44 c36 -26 67 -90 76 -158
7 -58 -5 -80 -57 -108 -109 -56 -219 -27 -219 59 0 40 14 62 49 77 27 11 29
15 20 33 -8 14 -8 30 0 57 17 58 79 77 131 40z m68 -873 c4 -72 -13 -101 -72
-128 -83 -36 -167 -24 -208 32 -25 34 -36 107 -17 114 30 11 236 44 264 42 29
-2 30 -3 33 -60z m2792 28 c0 -9 -11 -20 -25 -25 -30 -12 -39 -31 -31 -65 10
-39 41 -31 77 18 43 60 86 79 134 61 20 -8 45 -56 45 -87 0 -44 -61 -104 -94
-91 -25 10 -19 32 15 49 24 13 30 22 27 42 -2 14 -11 31 -21 37 -15 9 -25 3
-65 -41 -26 -28 -57 -54 -69 -58 -26 -7 -78 17 -87 40 -15 41 -1 108 28 127
21 14 66 9 66 -7z m-96 -210 c3 -8 1 -26 -4 -39 -10 -27 0 -32 144 -82 73 -25
92 -40 75 -61 -8 -9 -22 -8 -62 9 -29 11 -82 31 -119 43 l-67 23 -10 -29 c-10
-29 -34 -39 -46 -19 -6 9 3 37 44 143 11 29 35 36 45 12z m-2631 -60 c9 -20
17 -42 17 -49 0 -17 -23 -27 -40 -16 -16 10 -206 -54 -203 -68 1 -5 -4 -16
-12 -22 -22 -18 -42 3 -50 50 -8 49 -1 64 25 50 14 -8 43 -3 115 20 77 25 95
35 95 50 0 34 35 24 53 -15z m90 -209 c14 -13 29 -36 33 -51 8 -31 -9 -73 -32
-82 -24 -9 -35 17 -19 47 15 28 5 51 -29 63 -33 13 -45 -9 -39 -68 7 -68 -9
-109 -49 -126 -85 -35 -166 95 -97 157 28 25 47 5 31 -31 -18 -38 -15 -53 13
-71 41 -27 55 -6 52 78 -2 63 0 72 22 89 33 27 82 24 114 -5z m2514 9 c12 -8
27 -31 33 -50 11 -35 12 -35 70 -35 63 0 85 -14 54 -37 -13 -10 -34 -12 -75
-7 -51 6 -58 4 -68 -14 -10 -19 -6 -24 34 -47 44 -27 57 -51 32 -61 -22 -8
-252 130 -255 154 -2 13 12 36 41 66 35 37 50 46 78 46 19 0 44 -7 56 -15z
m-2397 -187 c0 -5 -17 -24 -37 -43 -35 -32 -36 -35 -23 -61 21 -39 34 -39 79
-4 40 33 71 35 71 6 0 -8 -26 -36 -57 -62 -32 -27 -79 -68 -105 -91 -30 -27
-53 -41 -62 -37 -27 10 -18 35 27 74 l42 39 -31 31 -32 32 -42 -38 c-32 -29
-45 -36 -58 -28 -27 18 -24 31 15 63 21 17 71 58 112 91 58 48 76 58 87 49 8
-6 14 -16 14 -21z m2206 7 c4 -9 -11 -35 -35 -64 l-41 -49 26 -21 c15 -12 30
-21 34 -21 4 0 20 16 35 36 18 24 34 34 48 32 32 -5 30 -22 -8 -68 -19 -23
-35 -43 -35 -44 0 -1 13 -12 30 -24 l29 -22 42 45 c43 45 79 59 79 29 0 -21
-98 -134 -116 -134 -7 0 -35 19 -61 43 -27 23 -74 62 -106 87 -31 25 -57 51
-57 58 0 18 101 132 118 132 7 0 15 -7 18 -15z m-1999 -216 c35 -28 62 -56 60
-63 -8 -23 -39 -16 -86 18 l-49 36 -21 -26 c-27 -34 -26 -38 4 -54 29 -16 58
-57 50 -70 -11 -18 -36 -11 -75 20 l-38 30 -21 -26 c-12 -15 -21 -30 -21 -34
0 -4 20 -24 45 -44 46 -38 60 -76 28 -76 -10 0 -46 25 -81 56 l-63 56 18 27
c47 71 158 201 171 201 8 0 43 -23 79 -51z m1854 21 c20 -11 25 -35 9 -45 -5
-3 -19 -1 -30 5 -25 13 -56 -1 -65 -31 -11 -35 7 -43 68 -31 64 13 121 1 137
-28 18 -33 11 -77 -16 -110 -24 -27 -32 -31 -72 -28 -29 2 -49 9 -56 20 -16
26 4 41 36 29 48 -18 91 38 53 69 -12 10 -24 10 -54 1 -57 -17 -92 -14 -118
11 -68 64 24 182 108 138z m-1652 -155 c32 -16 41 -33 41 -76 0 -18 -6 -32
-16 -36 -18 -7 -35 13 -27 33 5 12 -30 54 -45 54 -5 0 -17 -6 -28 -14 -16 -12
-17 -18 -7 -33 57 -82 67 -142 31 -180 -25 -26 -66 -30 -107 -9 -44 23 -66 91
-37 115 16 14 30 0 40 -41 11 -48 86 -47 86 1 0 10 -11 28 -25 41 -91 85 -15
202 94 145z m1452 5 c23 -13 26 -50 3 -50 -8 0 -24 5 -35 11 -26 13 -61 -15
-57 -45 3 -18 11 -21 56 -22 71 -2 98 -10 122 -36 29 -32 26 -74 -9 -109 -48
-48 -141 -40 -141 12 0 21 21 25 51 9 36 -20 83 26 58 56 -8 9 -34 14 -79 14
-62 0 -71 2 -89 26 -24 31 -26 59 -7 93 24 44 84 63 127 41z m-216 -90 c0 -8
-24 -27 -54 -42 -30 -15 -56 -30 -59 -33 -9 -8 21 -66 32 -62 65 24 86 29 101
24 27 -11 13 -30 -42 -58 l-50 -26 13 -31 c15 -37 13 -36 78 -17 67 20 78 19
74 -7 -2 -18 -18 -26 -82 -45 -43 -14 -82 -21 -87 -16 -4 4 -30 64 -57 133
-37 94 -47 128 -38 137 15 16 137 63 156 60 8 -1 15 -9 15 -17z m-773 -87 c28
-25 23 -70 -12 -105 -29 -29 -30 -32 -19 -66 12 -36 12 -36 27 -14 8 12 21 22
28 22 20 0 17 -33 -5 -62 -13 -16 -18 -33 -14 -48 6 -22 4 -23 -27 -17 -18 4
-46 7 -62 7 -44 0 -82 43 -74 83 3 17 15 41 26 52 14 15 20 35 20 71 0 63 20
94 62 94 17 0 40 -7 50 -17z m505 -8 c50 -33 80 -152 55 -216 -6 -15 -22 -36
-37 -47 -29 -23 -102 -39 -116 -25 -11 11 -52 270 -45 288 10 28 100 28 143 0z"/>
<path d="M2883 3967 l-22 -45 22 -6 c28 -7 29 -6 25 49 l-3 48 -22 -46z"/>
<path d="M2977 3306 c-67 -28 -122 -62 -176 -111 -36 -33 -38 -33 -82 -23 -66
17 -428 16 -515 -1 l-72 -14 -38 31 c-98 77 -243 135 -288 114 -38 -17 -60
-113 -62 -272 -2 -113 -5 -143 -23 -183 -97 -223 1 -532 188 -588 20 -6 191
-15 381 -20 376 -10 682 1 769 27 128 38 236 251 216 428 -9 73 -46 176 -82
229 -24 34 -27 48 -28 140 -2 70 -9 122 -23 165 -35 109 -61 121 -165 78z
m-29 -531 c38 -41 45 -92 21 -141 -12 -23 -68 -54 -100 -54 -89 0 -152 109
-103 179 49 69 126 76 182 16z m-828 10 c42 -21 60 -53 60 -103 0 -37 -6 -50
-34 -78 -28 -28 -42 -34 -76 -34 -92 0 -139 68 -106 154 26 67 93 94 156 61z
m220 -150 c0 -16 30 -35 54 -35 8 0 27 11 42 25 l28 26 23 -26 c37 -39 98 -30
116 17 4 11 7 11 18 0 11 -10 11 -17 -3 -40 -23 -38 -77 -51 -123 -29 -30 14
-37 15 -62 2 -40 -21 -67 -18 -102 11 -36 30 -41 64 -11 64 11 0 20 -7 20 -15z"/>
<path d="M1940 2179 c0 -12 28 -189 62 -389 29 -175 26 -170 93 -170 37 0 55
4 55 13 -1 34 -86 534 -93 545 -10 15 -117 17 -117 1z"/>
<path d="M2920 2188 c0 -2 -9 -109 -20 -238 -11 -129 -20 -252 -20 -272 l0
-38 44 0 c25 0 48 5 51 10 7 11 39 300 50 448 l7 92 -56 0 c-31 0 -56 -1 -56
-2z"/>
<path d="M2124 2158 c6 -28 62 -390 73 -473 l8 -60 79 2 c44 2 81 5 83 7 2 2
-5 116 -17 254 -11 138 -20 260 -20 272 0 19 -6 20 -105 20 -104 0 -105 0
-101 -22z"/>
<path d="M2394 2063 c3 -65 11 -189 18 -275 l11 -158 92 0 93 0 6 178 c4 97 8
220 9 272 l2 95 -119 3 -119 3 7 -118z"/>
<path d="M2686 2143 c-3 -21 -8 -145 -12 -276 l-7 -238 74 3 74 3 16 200 c10
110 20 233 23 273 l7 72 -85 0 -84 0 -6 -37z"/>
<path d="M975 2265 c-33 -8 -65 -14 -72 -14 -9 -1 -9 -9 -1 -31 12 -36 39 -45
111 -37 41 5 57 13 74 34 13 15 23 36 23 46 0 21 -46 22 -135 2z"/>
<path d="M3716 1771 l-28 -29 40 -21 c23 -12 44 -21 46 -21 5 0 36 55 36 64 0
11 -33 36 -49 36 -9 0 -30 -13 -45 -29z"/>
<path d="M2231 1091 c-15 -27 -14 -41 4 -41 23 0 38 35 20 50 -11 9 -16 7 -24
-9z"/>
<path d="M2189 946 c-11 -22 -10 -29 3 -43 22 -22 41 -7 33 26 -10 41 -23 47
-36 17z"/>
<path d="M2714 1045 c10 -90 27 -155 40 -155 6 0 22 7 35 16 21 15 23 22 19
82 -4 56 -8 68 -32 88 -15 13 -36 24 -48 24 -19 0 -20 -4 -14 -55z"/>
</g>
</svg>
